<svg xmlns="http://www.w3.org/2000/svg" viewBox="0 0 81.42 81.42"><defs><style>.cls-1{fill:#3e3500;}.cls-2{fill:#807200;}.cls-3{fill:#bda600;}.cls-4{fill:#ffe349;}.cls-5{fill:#fd0;}.cls-6{fill:#ffe97c;}.cls-7{fill:#00290b;}.cls-8{fill:#005a23;}.cls-9{fill:#008238;}.cls-10{fill:#00be73;}.cls-11{fill:#00af4d;}.cls-12{fill:#20cd92;}.cls-13{fill:#00193c;}.cls-14{fill:#003c7e;}.cls-15{fill:#005db7;}.cls-16{fill:#0092f5;}.cls-17{fill:#007df4;}.cls-18{fill:#20adf7;}.cls-19{fill:#432000;}.cls-20{fill:#864a00;}.cls-21{fill:#ca7100;}.cls-22{fill:#ffa739;}.cls-23{fill:#ff9100;}.cls-24{fill:#ffbb70;}.cls-25{fill:#410502;}.cls-26{fill:#841309;}.cls-27{fill:#c82112;}.cls-28{fill:#ff5c4d;}.cls-29{fill:#ff301d;}.cls-30{fill:#ff817b;}.cls-31{fill:#323435;}.cls-32{fill:#6d6d70;}.cls-33{fill:#9fa0a4;}.cls-34{fill:#dddde1;}.cls-35{fill:#d4d5d9;}.cls-36{fill:#e3e5e7;}</style></defs><g id="Capa_2" data-name="Capa 2"><g id="Capa_2-2" data-name="Capa 2"><rect class="cls-1" width="13.57" height="13.57"/><rect class="cls-2" x="13.57" width="13.57" height="13.57"/><rect class="cls-3" x="27.14" width="13.57" height="13.57"/><rect class="cls-4" x="54.28" width="13.57" height="13.57"/><rect class="cls-5" x="40.71" width="13.57" height="13.57"/><rect class="cls-6" x="67.85" width="13.57" height="13.57"/><rect class="cls-7" y="13.57" width="13.57" height="13.57"/><rect class="cls-8" x="13.57" y="13.57" width="13.57" height="13.57"/><rect class="cls-9" x="27.14" y="13.57" width="13.57" height="13.57"/><rect class="cls-10" x="54.28" y="13.57" width="13.57" height="13.57"/><rect class="cls-11" x="40.71" y="13.57" width="13.57" height="13.57"/><rect class="cls-12" x="67.85" y="13.57" width="13.57" height="13.57"/><rect class="cls-13" y="27.14" width="13.57" height="13.57"/><rect class="cls-14" x="13.57" y="27.14" width="13.57" height="13.57"/><rect class="cls-15" x="27.14" y="27.14" width="13.57" height="13.57"/><rect class="cls-16" x="54.28" y="27.14" width="13.57" height="13.57"/><rect class="cls-17" x="40.71" y="27.14" width="13.57" height="13.57"/><rect class="cls-18" x="67.85" y="27.14" width="13.57" height="13.57"/><rect class="cls-19" y="40.71" width="13.57" height="13.57"/><rect class="cls-20" x="13.57" y="40.71" width="13.57" height="13.57"/><rect class="cls-21" x="27.14" y="40.71" width="13.57" height="13.57"/><rect class="cls-22" x="54.28" y="40.71" width="13.57" height="13.57"/><rect class="cls-23" x="40.71" y="40.71" width="13.57" height="13.57"/><rect class="cls-24" x="67.85" y="40.71" width="13.57" height="13.57"/><rect class="cls-25" y="54.28" width="13.57" height="13.57"/><rect class="cls-26" x="13.57" y="54.28" width="13.57" height="13.57"/><rect class="cls-27" x="27.14" y="54.28" width="13.57" height="13.57"/><rect class="cls-28" x="54.28" y="54.28" width="13.57" height="13.57"/><rect class="cls-29" x="40.71" y="54.28" width="13.57" height="13.57"/><rect class="cls-30" x="67.85" y="54.28" width="13.57" height="13.57"/><rect class="cls-31" y="67.85" width="13.57" height="13.57"/><rect class="cls-32" x="13.57" y="67.85" width="13.57" height="13.57"/><rect class="cls-33" x="27.14" y="67.85" width="13.57" height="13.57"/><rect class="cls-34" x="54.28" y="67.85" width="13.57" height="13.57"/><rect class="cls-35" x="40.71" y="67.85" width="13.57" height="13.57"/><rect class="cls-36" x="67.85" y="67.85" width="13.57" height="13.57"/></g></g></svg>